<svg id="smart-logo--white-with-padding" width="586" height="242" xmlns="http://www.w3.org/2000/svg"><g fill="#FFF" fill-rule="nonzero"><path fill="none" d="M0 0h586v242H0z"/><path d="M204.14 125.595c1-.7 1.6-1 2.2-1.4 4.7-2.8 9.4-5.7 14.2-8.4 1.5-.8 3.1-1.5 4.7-1.9 5.7-1.6 10.1 1 11.6 6.7 1 3.8.7 7.5-.2 11.2-.2 1-.5 2-.8 3.5 1-.8 1.6-1.2 2.2-1.7 7-5.1 13.9-10.3 20.9-15.4 2.7-1.9 5.7-3.5 8.6-5.1 2.5-1.4 4.1-.8 5.3 1.7 1.2 2.3 1.3 4.8.7 7.3-.6 2.3-1.3 4.5-2 6.7-1.7 5.3-3.3 10.6-3.1 16.3.1 1.7.4 3.4 1 4.9 1.3 3.3 4 4.8 7.4 4 2.2-.5 4.3-1.4 6.2-2.6 6.9-4.4 12.9-9.8 17.4-16.6 3.1-4.6 5.7-9.5 8.5-14.3.8-1.3 1.4-2.7 2.4-3.9 1.9-2.6 4-2.8 6.7-1 .3.2.5.4.9.7 4.7-4.2 10-6.3 16-3.3 5.6 2.9 8.3 7.9 8.5 14.7.7-1.1 1.1-1.8 1.6-2.4 1.2-1.7 3-2.6 4.8-2 2 .6 3.8 1.7 4 4 .1 1.5-.2 3.2-.8 4.7-.9 2.2-2.1 4.3-3.3 6.5-.8 1.6-1.2 3.3-1 5.1.2 2 1.2 2.9 3.2 2.7.9-.1 1.9-.4 2.8-.7 2.4-1 4.6-2.4 6.4-4.4 3.3-3.6 6.5-7.2 9.7-10.9 2.7-3 5.2-6.2 8-9.1 1.6-1.7 3.5-3.1 5.4-4.4 1.1-.8 2.5-1.2 3.8-1.5 3.9-.8 7.2 1.6 7.4 5.6.1 1.7-.2 3.6-.7 5.2-.9 3.2-2.2 6.4-3.3 9.6-.5 1.6-1.2 3.2-1.6 4.8-1 4.5 1.8 8.1 6.5 8.1 1.7 0 3.6-.4 5.2-1 4.6-1.7 8.6-4.4 12.2-7.7 4.9-4.5 8.6-9.8 12.1-15.9-1 .3-1.6.4-2.1.6-2.4 1.1-4.9 2.2-7.3 3.3-1 .5-2.1.9-3.1 1.3-2.2.7-3.7-.1-4.3-2.3-.1-.2-.1-.5-.2-.7-1.2-6 2.9-14.6 8.5-17.1 3.7-1.7 7.8-2.8 11.6-4.1.5-.2 1.1-.3 1.7-.4 5.6-.7 9.5-3.8 12-8.8.8-1.7 1.7-3.3 2.8-4.8 1-1.3 2.3-2.5 3.7-3.4 1.6-1 3-.6 4.3.9 1.4 1.6 1.9 3.6 1.2 5.6-.5 1.4-1.2 2.8-1.8 4.2-.4.8-.7 1.6-1.4 2.9 2.4-.4 4.3-.7 6.1-1.2 13.9-3.9 28.2-5.6 42.4-8.1 5.6-1 11.2-1.9 16.3-4.6 1.5-.8 3.4-.9 5.1-1.2 1.2-.2 2.1.5 2.9 1.5 1.8 2.5 2.1 5.2.8 8-.7 1.5-1.7 3-2.8 4.2-3.4 3.7-7.6 6.2-12.5 7.5-10.8 2.7-21.7 4.5-32.7 6.3-9.2 1.5-18.3 3.2-27.5 4.7-5.6.9-9.6 3.9-12.2 9-3 5.9-4.8 12.1-4 18.8 1 7.7 5.8 12 13.7 12.4 9.8.4 19.2-1.7 28.2-5.4 7.5-3.1 14.4-7.3 20.6-12.6.4-.4.8-.8 1.3-1.1 1.8-1.2 3.9-.7 4.9 1.3 1 2.1.9 4.2.1 6.4-.8 2.3-2.2 4.1-3.8 5.8-2.6 2.8-5.7 5-9 6.9-9.6 5.7-20 9.2-30.7 11.7-5.4 1.3-10.8 2.1-16.4 1.9-3.7-.2-7.2-.8-10.6-2.3-6.6-2.9-10.2-8-11.2-15-.2-1.5-.4-3-.6-4.8-.6.5-1.1.8-1.5 1.1-5.2 4-10.7 7.6-16.6 10.5-4.8 2.4-9.8 3.8-15.2 3.7-6.7-.2-10.9-4-11.5-10.7-.5-4.8.4-9.5 2-14 .3-.7.5-1.5.8-2.2-.2-.1-.4-.3-.6-.4-.5.6-.9 1.3-1.4 1.9-4 4.5-7.9 9-12 13.3-2.8 2.9-5.8 5.6-9 8.1-2.7 2.2-5.9 3.6-9.5 4-6.9.8-11.7-3-12.2-9.9-.1-1.3 0-2.6 0-4-1.1.2-1.4 1.2-2 1.8-2.2 2.6-4.1 5.4-6.6 7.7-3.1 2.9-6.6 5.5-10.1 7.9-2.4 1.7-5.2 2.7-8.2 2.7-4.7 0-8.1-2.3-9.5-6.8-.6-2-.7-4.1-.9-6.2-.1-.7 0-1.4 0-2.7-1 .9-1.6 1.5-2.3 2.1-3.2 2.8-6.3 5.8-9.7 8.4-3.1 2.5-6.7 4.2-10.7 4.9-7.1 1.2-13.2-2.2-15.8-8.8-1.9-4.7-2.2-9.7-1.8-14.7.4-4.5 1.1-9 3.1-13.1l.3-.9c0-.1-.1-.1-.3-.4-.7.5-1.4.9-2.1 1.4-7.5 6-15 12-22.4 18.2-5.1 4.4-9.4 9.5-13 15.3-.7 1.2-1.8 2.3-3 3-2.3 1.4-4.5.3-5.2-2.3-.6-2.3-.4-4.5.3-6.7.8-2.6 1.8-5.2 2.9-7.7 1.5-3.5 3.3-6.8 4.8-10.3.7-1.6 1.4-3.3 1.9-5 .2-.8.3-1.8.1-2.6-.5-3.4-2.2-4.5-5.4-3.4-1.7.6-3.4 1.6-4.9 2.6-10.3 6.7-19 15.1-26.3 24.9-1.2 1.5-2 3.3-3.2 4.9-.9 1.3-1.9 2.6-3.1 3.7-1.2 1.1-2.7 1.5-4.3.8-1.6-.6-2-2-2.2-3.5-.3-3.3 0-6.5 1.3-9.5 1.6-3.7 3.4-7.3 5.3-10.8 2.8-5.1 5.9-10 8.7-15.1 1.4-2.5 2.6-5.2 3.8-7.8.9-2 1-4.1.8-6.2-.3-2.5-1.7-3.6-4.2-3.1-4.2.9-8.4 1.9-12.4 3.3-6.9 2.4-13.6 5.2-20.3 8-1.8.7-3.5 1.8-5.1 2.8-1.6 1.1-1.8 2.3-.9 4 .2.5.5 1 .8 1.5 3.4 4.9 3.9 10.3 2.3 15.9-2.7 9.7-8.8 16.9-17.4 22.1-6.2 3.7-13 5.7-20.1 6.8-3.4.5-6.9 1-10.4 1.2-2.7.2-5.5.1-8.2-.4-5.5-.9-8.7-4.7-9.1-10.4-.2-3.2.3-6.3 1.2-9.3 1.8-6.2 5.1-11.5 9.9-15.8 4.2-3.8 8.6-7.4 13.5-10.2 2.3-1.3 4.5-2.8 7-4.4-.7-.5-1.1-.9-1.6-1.1-1.7-.7-3.3-1.3-5-1.8-11.2-3.5-22.4-7-33.6-10.6-3.5-1.1-7-2.5-10.4-4-6.2-2.7-8.8-8.3-8.4-15.2.6-11.3 6.2-19.8 15.6-25.9 7-4.5 14.8-7.2 23-8.9 6.5-1.4 13.1-2.3 19.8-1.9 3.4.2 6.8.6 10.1 1.5 8 2.1 10.8 7.1 9 15.2-.6 2.5-1.5 4.9-3.1 7-2.5 3.2-5.6 3.7-8.9 1.4-.4-.3-.8-.5-1.2-.9-3.9-3.9-8.8-4.9-14.1-4.9-8 0-15.6 1.9-22.9 5-3.7 1.6-7.2 3.7-10.7 5.7-2.1 1.2-2.1 2.2 0 3.5 1.4.9 3 1.6 4.6 2.2 8.1 2.8 16.3 5.4 24.4 8.2 6.8 2.3 13.5 5.1 19.7 8.8 2.3 1.4 4.9 2.4 7.5 3.3 2.6.9 5.3.8 7.8-.4 4.2-2 8.5-4.1 12.6-6.2 9.2-4.8 18.6-9.1 28.4-12.5 4.8-1.7 9.6-2.8 14.8-2.3 6.2.6 10.2 4.7 10.6 10.9.3 4.5-.8 8.8-2.3 13-.2 2.4-.8 4-1.6 6zm-94.6 39.3c4-.6 8.7-1.1 13.2-2.2 3.9-.9 7.7-2.3 11.4-3.9 2-.9 3.9-2.4 5.4-3.9 2.2-2.1 2.3-4.7.8-7.3-.8-1.3-1.6-2.6-2.5-3.8-2.2-2.7-4.4-3.3-7.5-1.9-1.8.8-3.6 1.9-5.3 3-4 2.7-8 5.5-12 8.2-2.7 1.9-5.4 3.9-8 5.9-.9.7-1.7 1.5-2.4 2.3-1.3 1.5-1 2.4 1 2.9 1.8.4 3.5.5 5.9.7zm208.6-37.4c-2 3.9-4.1 7.7-5.8 11.5-1.8 4.1-2.7 8.4-2.9 12.9-.1 2.5 2.1 4 4.4 3 1.1-.5 2.2-1.4 3-2.3 1.3-1.6 2.5-3.2 3.3-5.1 2.6-5.8 5-11.7 7.4-17.6.5-1.2.7-2.5.8-3.8.1-1.2-.5-1.7-1.6-1.3-1.3.4-2.6.9-3.7 1.7-1.6 1.2-3.1 1.9-4.9 1z"/></g></svg>
