<?xml version="1.0" encoding="UTF-8"?><svg id="a" xmlns="http://www.w3.org/2000/svg" xmlns:xlink="data:image/png;base64" viewBox="0 0 1568 271"><defs><style>.c{fill:#fff;}.d{clip-path:url(#b);}.e{fill:none;}</style><clipPath id="b"><rect class="e" x="86.27" y="40.91" width="641.79" height="165.78"/></clipPath></defs><g class="d"><path class="c" d="M283.77,128.97c1.42-.91,2.19-1.44,3.01-1.92,6.51-3.91,12.97-7.88,19.56-11.67,2.02-1.16,4.26-2,6.5-2.64,7.91-2.25,14.02,1.31,16.09,9.27,1.35,5.19,.98,10.36-.26,15.53-.32,1.37-.64,2.77-1.13,4.87,1.41-1.05,2.24-1.68,3.09-2.3,9.61-7.1,19.15-14.3,28.88-21.23,3.71-2.65,7.81-4.78,11.82-6.99,3.41-1.87,5.7-1.06,7.38,2.35,1.6,3.23,1.86,6.65,1.03,10.09-.75,3.12-1.79,6.19-2.78,9.25-2.36,7.33-4.54,14.7-4.23,22.5,.1,2.29,.54,4.67,1.36,6.81,1.74,4.51,5.46,6.63,10.16,5.52,2.98-.7,5.97-1.96,8.56-3.6,9.53-6.05,17.85-13.5,24.09-22.92,4.23-6.4,7.88-13.19,11.78-19.8,1.07-1.82,1.99-3.76,3.24-5.44,2.69-3.58,5.53-3.92,9.27-1.34,.36,.26,.7,.55,1.19,.93,6.44-5.82,13.74-8.78,22.04-4.5,7.75,3.98,11.5,10.85,11.71,20.36,1-1.57,1.55-2.47,2.15-3.34,1.61-2.36,4.21-3.55,6.63-2.84,2.83,.83,5.31,2.41,5.49,5.59,.12,2.13-.31,4.45-1.1,6.45-1.23,3.09-2.96,5.97-4.51,8.93-1.17,2.24-1.68,4.6-1.38,7.1,.32,2.79,1.69,3.99,4.48,3.73,1.31-.12,2.65-.51,3.88-1.03,3.33-1.4,6.33-3.35,8.76-6.02,4.5-4.96,8.92-9.98,13.36-15,3.68-4.19,7.21-8.51,11.07-12.54,2.22-2.3,4.84-4.29,7.49-6.11,1.53-1.04,3.42-1.72,5.25-2.09,5.44-1.09,9.91,2.27,10.21,7.77,.13,2.4-.25,4.91-.93,7.23-1.31,4.47-3.01,8.84-4.51,13.26-.76,2.21-1.66,4.39-2.16,6.65-1.36,6.25,2.5,11.2,8.94,11.23,2.4,.02,4.91-.48,7.17-1.31,6.36-2.37,11.91-6.12,16.89-10.7,6.7-6.19,11.85-13.53,16.74-21.93-1.38,.41-2.22,.55-2.97,.88-3.36,1.51-6.7,3.09-10.06,4.59-1.42,.64-2.86,1.3-4.34,1.75-2.99,.94-5.06-.2-5.94-3.12-.11-.32-.2-.64-.27-.97-1.59-8.23,4.03-20.13,11.71-23.61,5.16-2.34,10.71-3.83,16.1-5.66,.73-.25,1.51-.42,2.28-.52,7.76-1.03,13.09-5.27,16.56-12.12,1.14-2.28,2.31-4.61,3.88-6.62,1.38-1.81,3.14-3.48,5.06-4.71,2.27-1.43,4.17-.86,5.94,1.19,1.96,2.28,2.67,4.91,1.67,7.77-.69,1.99-1.67,3.88-2.54,5.8-.5,1.09-1.03,2.16-1.87,3.96,3.29-.61,5.95-.89,8.48-1.61,19.22-5.4,39.03-7.77,58.62-11.22,7.72-1.36,15.41-2.66,22.5-6.33,2.1-1.07,4.69-1.29,7.1-1.65,1.66-.25,2.95,.66,3.95,2.05,2.48,3.49,2.91,7.24,1.1,11.04-.99,2.07-2.31,4.09-3.88,5.78-4.73,5.09-10.51,8.61-17.31,10.34-14.87,3.76-29.99,6.22-45.11,8.74-12.69,2.11-25.34,4.41-38.02,6.56-7.75,1.31-13.3,5.45-16.84,12.39-4.17,8.2-6.7,16.74-5.47,26.03,1.4,10.66,8.01,16.61,18.9,17.1,13.56,.62,26.47-2.28,38.91-7.43,10.41-4.32,19.94-10.08,28.51-17.37,.6-.51,1.14-1.07,1.79-1.5,2.52-1.71,5.44-.95,6.73,1.82,1.32,2.87,1.2,5.84,.17,8.78-1.1,3.11-3.05,5.68-5.31,8.03-3.66,3.83-7.92,6.88-12.45,9.56-13.22,7.82-27.58,12.66-42.48,16.12-7.43,1.73-14.93,2.95-22.6,2.61-5.07-.21-10-1.11-14.68-3.16-9.1-3.99-14.02-11.05-15.41-20.71-.29-2.06-.5-4.14-.8-6.59-.85,.66-1.44,1.11-2.03,1.56-7.14,5.59-14.76,10.46-22.87,14.54-6.58,3.32-13.51,5.29-20.99,5.07-9.31-.3-15.01-5.57-15.87-14.76-.63-6.67,.6-13.07,2.8-19.33,.36-1,.72-2,1.09-3.01-.26-.2-.51-.39-.78-.6-.64,.87-1.2,1.81-1.93,2.62-5.51,6.14-10.9,12.41-16.62,18.35-3.86,4.01-8.03,7.76-12.38,11.22-3.77,3.01-8.22,4.98-13.12,5.58-9.58,1.17-16.11-4.13-16.86-13.67-.14-1.76-.02-3.54-.02-5.5-1.5,.24-1.97,1.6-2.75,2.52-3.03,3.57-5.68,7.52-9.07,10.67-4.32,4.01-9.1,7.55-13.93,10.95-3.3,2.33-7.13,3.7-11.32,3.73-6.52,.06-11.25-3.14-13.07-9.35-.81-2.74-.94-5.69-1.31-8.54-.12-.97-.02-1.96-.02-3.76-1.38,1.28-2.23,2.09-3.1,2.85-4.46,3.9-8.78,7.95-13.4,11.63-4.33,3.42-9.24,5.8-14.81,6.71-9.74,1.61-18.24-3.03-21.8-12.13-2.55-6.56-3.06-13.4-2.49-20.36,.52-6.24,1.45-12.37,4.34-18.05,.19-.38,.25-.85,.36-1.28,.01-.07-.13-.18-.43-.58-.95,.62-1.98,1.2-2.89,1.93-10.33,8.36-20.78,16.58-30.9,25.17-7.08,6.03-13,13.16-17.91,21.11-1.01,1.63-2.54,3.17-4.19,4.16-3.23,1.94-6.18,.48-7.15-3.16-.85-3.11-.56-6.24,.37-9.22,1.11-3.6,2.47-7.15,3.98-10.61,2.1-4.78,4.5-9.44,6.67-14.2,1-2.22,1.87-4.52,2.58-6.84,.33-1.13,.36-2.43,.19-3.61-.67-4.66-3.11-6.25-7.51-4.63-2.38,.87-4.67,2.15-6.81,3.54-14.15,9.29-26.2,20.81-36.29,34.34-1.6,2.15-2.83,4.56-4.38,6.73-1.3,1.8-2.68,3.58-4.28,5.09-1.61,1.54-3.67,2.11-5.9,1.18-2.13-.91-2.8-2.71-3.02-4.82-.45-4.51-.05-8.97,1.76-13.09,2.22-5.09,4.67-10.09,7.36-14.95,3.89-7.01,8.16-13.81,12.08-20.8,1.96-3.48,3.58-7.17,5.21-10.82,1.2-2.69,1.44-5.6,1.05-8.51-.47-3.47-2.36-5.02-5.81-4.25-5.77,1.31-11.6,2.56-17.16,4.54-9.48,3.36-18.78,7.2-28.09,10.99-2.46,1-4.79,2.42-6.99,3.94s-2.42,3.11-1.26,5.53c.33,.69,.73,1.38,1.17,2.02,4.66,6.83,5.38,14.29,3.21,22.04-3.76,13.42-12.09,23.4-23.97,30.53-8.56,5.13-18.01,7.83-27.81,9.35-4.76,.73-9.54,1.4-14.33,1.67-3.77,.2-7.63,.11-11.34-.49-7.61-1.23-11.98-6.44-12.59-14.32-.33-4.38,.36-8.65,1.61-12.83,2.54-8.51,7.04-15.82,13.65-21.82,5.8-5.26,11.82-10.22,18.66-14.13,3.18-1.81,6.19-3.91,9.66-6.13-1.03-.7-1.56-1.22-2.21-1.47-2.29-.91-4.58-1.81-6.92-2.55-15.45-4.89-30.94-9.65-46.38-14.62-4.88-1.57-9.66-3.52-14.36-5.58-8.59-3.79-12.21-11.46-11.66-21.01,.89-15.63,8.54-27.3,21.57-35.71,9.71-6.28,20.47-9.92,31.72-12.27,9-1.88,18.11-3.16,27.32-2.64,4.67,.26,9.41,.82,13.9,2.03,11.04,2.97,14.94,9.8,12.47,20.94-.79,3.51-2.06,6.82-4.3,9.68-3.47,4.44-7.68,5.08-12.33,1.92-.55-.38-1.12-.74-1.6-1.22-5.37-5.37-12.2-6.76-19.41-6.8-11.03-.05-21.54,2.61-31.56,6.94-5.12,2.19-9.95,5.07-14.76,7.87-2.93,1.71-2.87,3.06,.02,4.87,1.98,1.22,4.13,2.28,6.32,3.02,11.21,3.84,22.48,7.5,33.7,11.3,9.44,3.21,18.61,6.99,27.2,12.14,3.22,1.94,6.82,3.33,10.37,4.63,3.58,1.3,7.29,1.17,10.78-.52,5.83-2.83,11.69-5.6,17.45-8.57,12.72-6.57,25.73-12.51,39.26-17.24,6.58-2.3,13.33-3.85,20.4-3.2,8.57,.8,14.11,6.51,14.63,15.04,.39,6.24-1.11,12.14-3.1,17.96-.75,2.17-1.57,4.33-2.6,7.17m-130.81,54.31c5.51-.87,12-1.51,18.27-2.99,5.39-1.28,10.68-3.22,15.79-5.41,2.78-1.19,5.33-3.27,7.52-5.43,2.98-2.93,3.18-6.46,1.12-10.08-1.05-1.82-2.17-3.64-3.48-5.28-2.98-3.71-6.02-4.54-10.36-2.66-2.54,1.11-4.95,2.58-7.25,4.13-5.57,3.71-11.07,7.52-16.54,11.39-3.73,2.64-7.39,5.38-11.02,8.14-1.24,.94-2.37,2.05-3.37,3.24-1.76,2.09-1.35,3.37,1.4,3.96,2.28,.49,4.64,.6,7.93,.99m288.2-51.75c-2.74,5.43-5.59,10.58-7.99,15.94-2.5,5.63-3.79,11.63-3.98,17.79-.11,3.51,2.84,5.51,6.09,4.1,1.57-.68,3.1-1.86,4.17-3.2,1.74-2.16,3.4-4.47,4.52-6.98,3.59-8.01,6.95-16.13,10.28-24.25,.67-1.61,.92-3.43,1.09-5.19,.17-1.65-.68-2.35-2.27-1.84-1.79,.58-3.65,1.28-5.14,2.37-2.13,1.56-4.2,2.47-6.77,1.24"/></g><g><path class="c" d="M801.07,50.74h12.94V196.85h-12.94V50.74Z"/><path class="c" d="M921.55,152.62h-73.25c.38,23.5,15.03,35.01,31.96,35.01,12.08,0,22.54-7.04,27.97-18.07l11.41,2.95c-6.94,16.08-21.69,26.16-39.19,26.16-25.59,0-44.52-17.79-44.52-47.85s19.21-47.85,44.23-47.85,41.57,15.6,41.66,45.75l-.29,3.9Zm-72.77-10.18h60.12c-1.24-19.69-12.84-29.11-28.73-29.11s-28.73,9.8-31.39,29.11Z"/><path class="c" d="M936.54,173.36c0-18.64,13.98-25.3,34.53-28.63l15.5-2.38c5.33-.95,7.99-3.8,7.99-8.66,0-14.74-10.27-20.17-21.88-20.17s-21.02,5.23-22.54,17.79l-11.7-2.85c2.57-16.93,15.88-25.3,34.62-25.3s34.05,8.56,34.05,31.39v39.67c0,10.84,3.42,12.84,9.8,12.84h1.52v9.8h-6.66c-8.75,0-14.93-4-16.55-12.65h-.57c-7.71,10.27-18.83,14.46-30.34,14.46-15.41,0-27.78-7.9-27.78-25.3Zm59.17-22.64l-24.92,4.38c-14.08,2.19-21.59,6.75-21.59,17.31,0,11.13,7.99,15.6,18.07,15.6,17.31,0,28.44-13.6,28.44-37.29Z"/><path class="c" d="M1078.61,103.82v12.56c-17.41,0-28.73,8.66-28.73,29.77v50.7h-12.75V104.77h12.65v16.93c4.57-10.94,15.79-17.69,28.82-17.88Z"/><path class="c" d="M1163.8,134.93v61.93h-12.75v-59.07c0-16.93-9.89-23.69-21.31-23.69-13.32,0-23.69,8.66-23.69,26.16v56.6h-12.84V104.77h12.84v12.46c5.61-9.04,15.03-14.17,26.83-14.17,17.79,0,30.92,11.03,30.92,31.87Z"/><path class="c" d="M1188.4,70.81c0-5.33,4.47-9.51,9.61-9.51s9.51,4.19,9.51,9.51-4.38,9.61-9.51,9.61-9.61-4.38-9.61-9.61Zm3.04,33.96h12.84v92.08h-12.84V104.77Z"/><path class="c" d="M1304.31,134.93v61.93h-12.75v-59.07c0-16.93-9.89-23.69-21.31-23.69-13.32,0-23.69,8.66-23.69,26.16v56.6h-12.84V104.77h12.84v12.46c5.61-9.04,15.03-14.17,26.83-14.17,17.79,0,30.92,11.03,30.92,31.87Z"/><path class="c" d="M1412.43,104.77v88.08c0,29.96-16.17,47.85-43.47,47.85-21.78,0-36.34-10.18-43.76-28.06l10.65-5.71c5.33,14.74,16.27,22.64,32.82,22.64,20.26,0,30.92-13.89,30.92-36.15v-19.59c-5.8,12.27-19.21,20.64-33.86,20.64-23.02,0-42.14-19.31-42.14-45.85s19.21-45.56,42.24-45.56c14.74,0,28.06,8.28,33.86,20.74l.19-19.02h12.56Zm-11.99,43.85c0-18.55-14.17-34.53-32.25-34.53s-31.96,14.65-31.96,34.53,14.55,34.53,31.96,34.53,32.25-15.98,32.25-34.53Z"/></g></svg>